<?xml version="1.0" encoding="utf-8"?>
<!-- Generator: Adobe Illustrator 19.0.0, SVG Export Plug-In . SVG Version: 6.00 Build 0)  -->
<svg version="1.1" id="图层_1" xmlns="http://www.w3.org/2000/svg" xmlns:xlink="http://www.w3.org/1999/xlink" x="0px" y="0px"
	 viewBox="100 0 100 100" style="enable-background:new 100 0 100 100;" xml:space="preserve">
<style type="text/css">
	.st0{fill:#666666;}
</style>
<path class="st0" d="M200,90.4h-33.3V79.1h22.3V19.4h-22.3v-11H200V90.4z"/>
<path class="st0" d="M153,42h26.2v14.8H153V42z"/>
<path class="st0" d="M159.3,70.3l-17.5-20.8l17.5-21.1V70.3z"/>
<path class="st0" d="M151.9,1L100,14.1v70.4l51.9,13.3v-26l-19.8-21.9l19.8-23.1V1z M123.7,48.5l12.9,23.6l-10.6-2.7l-6.9-12.5
	l-5.1,9.4l-8.6-2.2l8.9-16l-8.6-15.5l8.1-2l5,9.2l6.8-12.2l11.1-2.8L123.7,48.5z"/>
</svg>
