<?xml version="1.0" encoding="utf-8"?>
<!-- Generator: Adobe Illustrator 19.0.0, SVG Export Plug-In . SVG Version: 6.00 Build 0)  -->
<svg version="1.1" id="图层_1" xmlns="http://www.w3.org/2000/svg" xmlns:xlink="http://www.w3.org/1999/xlink" x="0px" y="0px"
	 viewBox="50 50 100 100" style="enable-background:new 50 50 100 100;" xml:space="preserve">
<style type="text/css">
	.st0{fill:#EF5350;}
</style>
<g>
	<path class="st0" d="M95.8,63c-0.9,5.7-0.4,11.5,0.9,17.2C98.9,74.5,99.3,67.8,95.8,63z M64.9,136.3c4.9-3.5,8-8.4,11.1-13.2
		C71.9,127,67.5,131.4,64.9,136.3z M86.9,115.5c6.6-2.2,13.2-4.4,20.3-5.7c-4.4-4.4-8.4-8.8-11-13.7
		C93.6,102.8,90.5,109.4,86.9,115.5z"/>
	<path class="st0" d="M150,50H50v100h100V50z M134.5,119.9c-7.9,0.5-14.9-3.6-21.5-6.3c-9.7,0.9-18.9,3.6-28.1,6.3
		c-4,6.7-7.9,14.8-14.5,19.3c-3.5,2.7-11,0.5-9.2-4.9c3.1-7.1,10.1-11.2,16.7-14.8c1.8-0.9,3.1-2.7,4-4.5c4.4-8.5,8.8-17,12.3-25.9
		C92.3,81,89.7,72.5,91,63.5c0.4-3.6,5.3-4.5,7.9-3.1c1.8,1.4,2.6,3.6,2.6,5.4c0,6.3-0.9,13-1.8,19.3c-0.4,3.1,1.3,5.8,2.6,8.1
		c3.1,5.8,7.5,11.2,13.2,14.8c7-0.9,14.1-1.8,21.1,0.5C141.1,110.1,139.7,119.9,134.5,119.9L134.5,119.9z"/>
	<path class="st0" d="M122.7,112c4.4,2.2,9.7,4.4,14.6,3.1C133.8,110.7,127.6,112,122.7,112z"/>
</g>
</svg>
