<?xml version="1.0" encoding="utf-8"?>
<!-- Generator: Adobe Illustrator 19.0.0, SVG Export Plug-In . SVG Version: 6.00 Build 0)  -->
<svg version="1.1" id="图层_1" xmlns="http://www.w3.org/2000/svg" xmlns:xlink="http://www.w3.org/1999/xlink" x="0px" y="0px"
	 viewBox="50 50 100 100" style="enable-background:new 50 50 100 100;" xml:space="preserve">
<style type="text/css">
	.st0{fill:#F14417;}
</style>
<path class="st0" d="M106.6,81.2c-1.1-0.3-3.2-0.4-6.2-0.4H87.4v18.1h13.1c4.3,0,7.4-0.8,9.2-2.4c1.8-1.6,2.7-3.9,2.7-6.8
	c0-2.1-0.5-3.9-1.6-5.4C109.7,82.6,108.3,81.6,106.6,81.2z"/>
<path class="st0" d="M50,50v100h100V50H50z M115.2,100.3c-2.7,3-7.7,4.5-14.8,4.5h-13v20.5h-6.7V74.7h19.1c3.4,0,5.9,0.2,7.7,0.5
	c2.5,0.4,4.6,1.2,6.2,2.4c1.7,1.2,3,2.8,4,4.9c1,2.1,1.5,4.4,1.5,6.9C119.3,93.6,117.9,97.3,115.2,100.3z"/>
</svg>
