<?xml version="1.0" encoding="utf-8"?>
<!-- Generator: Adobe Illustrator 19.0.0, SVG Export Plug-In . SVG Version: 6.00 Build 0)  -->
<svg version="1.1" id="图层_1" xmlns="http://www.w3.org/2000/svg" xmlns:xlink="http://www.w3.org/1999/xlink" x="0px" y="0px"
	 viewBox="50 50 100 100" style="enable-background:new 50 50 100 100;" xml:space="preserve">
<style type="text/css">
	.st0{fill:#3D94D1;}
</style>
<path class="st0" d="M50,50v100h100V50H50z M117.4,126h-9.5l-5.4-21.6c-0.6-2.6-1.3-5.2-1.9-8.2c-0.6,2.6-1.3,5.2-2.2,8.2l-6,21.6
	h-9.5L71,80.9h10.2l5,21.4c0.6,3,1.5,6.3,2.2,9.5c0.4-2.2,1.1-4.5,1.7-6.9l0.6-2.6l5.8-21.2h9.1l5.2,21.2c0.6,3,1.5,6,1.9,9.1
	c0.6-3,1.3-6.3,2.2-9.3l5.4-21.2h9.9L117.4,126L117.4,126z"/>
</svg>
