<?xml version="1.0" encoding="utf-8"?>
<!-- Generator: Adobe Illustrator 19.0.0, SVG Export Plug-In . SVG Version: 6.00 Build 0)  -->
<svg version="1.1" id="图层_1" xmlns="http://www.w3.org/2000/svg" xmlns:xlink="http://www.w3.org/1999/xlink" x="0px" y="0px"
	 viewBox="100 0 100 100" style="enable-background:new 100 0 100 100;" xml:space="preserve">
<style type="text/css">
	.st0{fill:#666666;}
	.st1{fill:#666666;stroke:#A3A3A3;stroke-width:0.25;stroke-miterlimit:10;}
</style>
<path class="st0" d="M192.5,9.8H175v10h10c2.8,0,5,2.2,5,5v55c0,2.8-2.2,5-5,5h-70c-2.8,0-5-2.2-5-5v-55c0-2.8,2.2-5,5-5h10v-10
	h-17.5c-4.1,0-7.5,3.4-7.5,7.5v70c0,4.1,3.4,7.5,7.5,7.5h85c4.1,0,7.5-3.4,7.5-7.5l0-70C200,13.2,196.6,9.8,192.5,9.8L192.5,9.8z
	 M150.2,2.9l-27.7,28l7.3,7.1L145,22.7v46.5c0,2.1,1.7,3.8,3.8,3.8h2.5c2.1,0,3.7-1.7,3.7-3.8V22.7l15.1,15.3l7.4-7L150.2,2.9z"/>
<path class="st1" d="M177.6,27.4"/>
</svg>
