<?xml version="1.0" encoding="utf-8"?>
<!-- Generator: Adobe Illustrator 19.0.0, SVG Export Plug-In . SVG Version: 6.00 Build 0)  -->
<svg version="1.1" id="图层_1" xmlns="http://www.w3.org/2000/svg" xmlns:xlink="http://www.w3.org/1999/xlink" x="0px" y="0px"
	 viewBox="100 0 100 100" style="enable-background:new 100 0 100 100;" xml:space="preserve">
<style type="text/css">
	.st0{fill:#666666;}
</style>
<path class="st0" d="M149.8,100l-47.2-47.2c-2.1-2.1-2.1-5.5,0-7.7c2.1-2.1,5.5-2.1,7.7,0l39.6,39.6l39.8-39.8
	c2.1-2.1,5.5-2.1,7.7,0c2.1,2.1,2.1,5.5,0,7.7l-4.4,4.4l0,0L149.8,100L149.8,100z M149.8,56.7L102.6,9.4c-2.1-2.1-2.1-5.5,0-7.7
	c2.1-2.1,5.5-2.1,7.7,0l39.6,39.6l39.8-39.8c2.1-2.1,5.5-2.1,7.7,0c2.1,2.1,2.1,5.5,0,7.7l-4.4,4.4l0,0L149.8,56.7L149.8,56.7z"/>
</svg>
