<?xml version="1.0" encoding="utf-8"?>
<!-- Generator: Adobe Illustrator 19.0.0, SVG Export Plug-In . SVG Version: 6.00 Build 0)  -->
<svg version="1.1" id="图层_1" xmlns="http://www.w3.org/2000/svg" xmlns:xlink="http://www.w3.org/1999/xlink" x="0px" y="0px"
	 viewBox="0 0 100 100" style="enable-background:new 0 0 100 100;" xml:space="preserve">
<style type="text/css">
	.st0{fill:#666666;}
</style>
<path id="XMLID_4_" class="st0" d="M7.6,100c1.8,0,3.2-1.5,3.2-3.2c0-21.5,17.5-39,39-39c21.5,0,39,17.4,39,39
	c0,1.8,1.5,3.2,3.2,3.2s3.2-1.5,3.2-3.2c0-20-13-37-30.9-43.1c8.4-5.1,14-14.3,14-24.7c0-16-13-29-28.9-29S20.5,13,20.5,28.9
	c0,10.6,5.8,19.9,14.3,24.9C17.1,60.1,4.3,76.9,4.3,96.8C4.4,98.5,5.8,100,7.6,100z M27,28.9C27,16.6,37,6.5,49.4,6.5
	s22.4,10.1,22.4,22.4S61.7,51.3,49.4,51.3S27,41.3,27,28.9z"/>
</svg>
