<?xml version="1.0" encoding="utf-8"?>
<!-- Generator: Adobe Illustrator 19.0.0, SVG Export Plug-In . SVG Version: 6.00 Build 0)  -->
<svg version="1.1" id="图层_1" xmlns="http://www.w3.org/2000/svg" xmlns:xlink="http://www.w3.org/1999/xlink" x="0px" y="0px"
	 viewBox="1.5 0.5 100 100" style="enable-background:new 1.5 0.5 100 100;" xml:space="preserve">
<style type="text/css">
	.st0{fill:#999999;}
</style>
<title>信封</title>
<desc>Created with Sketch.</desc>
<g id="Symbols">
	<g id="icon信封">
		<g id="信封">
			<path id="XMLID_1_" class="st0" d="M93.9,19.7L55.2,63.8c-1,1.1-2.4,1.8-3.8,1.8c-1.5,0-2.8-0.6-3.8-1.8l-38.7-44
				c-4.4,2.5-7.4,7.3-7.4,12.7v37.2c0,8.1,6.6,14.8,14.8,14.8h70.4c8.1,0,14.8-6.6,14.8-14.8V32.5C101.4,27,98.4,22.2,93.9,19.7z"/>
			<path id="XMLID_2_" class="st0" d="M49.7,52.1c0.5,0.5,1.1,0.8,1.7,0.8s1.2-0.3,1.7-0.8l30.7-34.8c-1.3-0.5-2.7-0.8-4.2-0.8H23.3
				c-1.5,0-2.9,0.3-4.1,0.8L49.7,52.1z"/>
		</g>
	</g>
</g>
</svg>
