<?xml version="1.0" encoding="utf-8"?>
<!-- Generator: Adobe Illustrator 19.0.0, SVG Export Plug-In . SVG Version: 6.00 Build 0)  -->
<svg version="1.1" id="图层_1" xmlns="http://www.w3.org/2000/svg" xmlns:xlink="http://www.w3.org/1999/xlink" x="0px" y="0px"
	 viewBox="50 50 100 100" style="enable-background:new 50 50 100 100;" xml:space="preserve">
<style type="text/css">
	.st0{fill:#666666;}
</style>
<path class="st0" d="M85.7,99.1c-0.1-0.9,0.2-1.5,1.1-1.9c3.3-1.6,6.5-3.2,9.7-4.8c7.2-3.6,14.4-7.2,21.5-10.8
	c1.6-0.8,3-1.5,4.5,0.1c0.2,0.3,0.7,0.3,1.1,0.5c5.5,3.2,11.2,3.1,16.8,0.4c6.3-3.1,9.4-8.3,9.8-15c-0.1-1.1-0.1-2-0.2-2.8
	c-1-7.9-8-14-15.4-14.9c-6.5-0.8-13.7,2.3-17.2,7.8c-2,3.2-3,6.6-3,10.4c0,0.5-0.3,1.1-0.7,1.3c-2.1,1.1-4.3,2.2-6.5,3.2
	c-3.5,1.7-7,3.4-10.4,5.2c-5.4,2.7-10.8,5.4-16.3,8.1c-0.4,0.2-1.3,0.1-1.8-0.3c-6.9-4.8-14.9-4.9-21.5,0.1
	c-5.7,4.3-7.9,10.1-6.6,17.2c0.8,4.5,3.2,7.9,6.7,10.5c6,4.6,13.9,4.8,20.3,0.7c0.8-0.5,1.4-0.5,2.2-0.2c2.8,1.4,5.6,2.7,8.3,4.1
	c7.8,3.9,15.5,7.8,23.3,11.7c2,1,3.2,1.9,3.4,4.6c0.3,5.7,3.6,10,8.4,13.1c2.2,1.5,4.8,2,7.4,2.3c6.6,0.7,11.9-1.6,15.8-6.6
	c4.3-5.4,4.9-11.3,2.2-17.7c-3-7.2-11.4-11.3-18.7-10.1c-3.1,0.5-6.1,1.5-8.6,3.6c-0.5,0.4-1,0.9-1.8,0.4c-2.6-1.3-5.2-2.5-7.8-3.8
	c-8-4-15.9-8-23.9-11.9c-2.2-1.1-2.2-1.1-1.9-3.4C85.7,99.8,85.7,99.4,85.7,99.1L85.7,99.1z"/>
</svg>
