<?xml version="1.0" encoding="utf-8"?>
<!-- Generator: Adobe Illustrator 19.0.0, SVG Export Plug-In . SVG Version: 6.00 Build 0)  -->
<svg version="1.1" id="图层_1" xmlns="http://www.w3.org/2000/svg" xmlns:xlink="http://www.w3.org/1999/xlink" x="0px" y="0px"
	 viewBox="50 50 100 100" style="enable-background:new 50 50 100 100;" xml:space="preserve">
<style type="text/css">
	.st0{fill:#666666;}
</style>
<path class="st0" d="M50,50v100h100V50H50z M126.8,104.5h-22.3v22.3c0,2.5-2,4.5-4.5,4.5h0c-2.5,0-4.5-2-4.5-4.5v-22.3H73.2
	c-2.5,0-4.5-2-4.5-4.5v0c0-2.5,2-4.5,4.5-4.5h22.3V73.2c0-2.5,2-4.5,4.5-4.5h0c2.5,0,4.5,2,4.5,4.5v22.3h22.3c2.5,0,4.5,2,4.5,4.5v0
	C131.2,102.5,129.3,104.5,126.8,104.5z"/>
</svg>
