<?xml version="1.0" encoding="utf-8"?>
<!-- Generator: Adobe Illustrator 19.0.0, SVG Export Plug-In . SVG Version: 6.00 Build 0)  -->
<svg version="1.1" id="图层_1" xmlns="http://www.w3.org/2000/svg" xmlns:xlink="http://www.w3.org/1999/xlink" x="0px" y="0px"
	 viewBox="100.1 0 100 100" style="enable-background:new 100.1 0 100 100;" xml:space="preserve">
<style type="text/css">
	.st0{fill:#666666;}
</style>
<path class="st0" d="M150.1,0c-27.6,0-50,22.4-50,50c0,27.6,22.4,50,50,50c27.6,0,50-22.4,50-50C200.1,22.4,177.7,0,150.1,0z
	 M178.8,37l-32.3,32.3c0,0,0,0,0,0c-1.5,1.5-3.8,1.7-5.5,0.7c-0.3-0.2-0.6-0.4-0.9-0.7c0,0,0,0,0,0l-18.6-18.6
	c-1.8-1.8-1.8-4.6,0-6.4c1.8-1.8,4.6-1.8,6.4,0l15.4,15.4l29.1-29.1c1.8-1.8,4.6-1.8,6.4,0C180.5,32.4,180.5,35.3,178.8,37z"/>
</svg>
