<?xml version="1.0" encoding="utf-8"?>
<!-- Generator: Adobe Illustrator 19.0.0, SVG Export Plug-In . SVG Version: 6.00 Build 0)  -->
<svg version="1.1" id="图层_1" xmlns="http://www.w3.org/2000/svg" xmlns:xlink="http://www.w3.org/1999/xlink" x="0px" y="0px"
	 viewBox="100 0 100 100" style="enable-background:new 100 0 100 100;" xml:space="preserve">
<style type="text/css">
	.st0{fill:#666666;}
</style>
<path class="st0" d="M150.5,0c-23.1,0-41.9,17.7-41.9,39.5c0,8.4,2.8,16.1,7.4,22.5c0.2,0.4,0.4,0.7,0.7,1.1L145.3,97
	c1.4,1.8,3.3,2.6,5.2,2.6s3.8-0.8,5.2-2.6l28.5-33.9c0.3-0.3,0.5-0.7,0.7-1c4.7-6.4,7.5-14.1,7.5-22.5C192.4,17.7,173.6,0,150.5,0z
	 M150.5,55.3c-9.2,0-16.7-7.1-16.7-15.8c0-8.7,7.5-15.8,16.7-15.8c9.2,0,16.7,7.1,16.7,15.8C167.3,48.3,159.8,55.3,150.5,55.3z"/>
</svg>
