<?xml version="1.0" encoding="utf-8"?>
<!-- Generator: Adobe Illustrator 19.0.0, SVG Export Plug-In . SVG Version: 6.00 Build 0)  -->
<svg version="1.1" id="图层_1" xmlns="http://www.w3.org/2000/svg" xmlns:xlink="http://www.w3.org/1999/xlink" x="0px" y="0px"
	 viewBox="100 0 100 100" style="enable-background:new 100 0 100 100;" xml:space="preserve">
<style type="text/css">
	.st0{fill:#666666;}
</style>
<path class="st0" d="M178.4,99.7h-56.7c-7.5,0.1-13.7-5.9-13.9-13.4V48.7c0.1-7.5,6.4-13.5,13.9-13.4h5.3c1.8-0.1,3.4,1.4,3.5,3.2
	c0.1,1.8-1.4,3.4-3.2,3.5c-0.1,0-0.2,0-0.3,0h-5.3c-3.8-0.1-6.9,2.9-7,6.7v37.6c0.1,3.8,3.2,6.8,7,6.7h56.7c3.8,0.1,6.9-2.9,7-6.7
	V48.7c-0.1-3.8-3.2-6.8-7-6.7h-37c-1.8,0.1-3.4-1.4-3.5-3.2c-0.1-1.8,1.4-3.4,3.2-3.5c0.1,0,0.2,0,0.3,0h37
	c7.5-0.1,13.7,5.9,13.9,13.4v37.6C192.1,93.8,185.9,99.8,178.4,99.7z M126.9,41.7c-1.9,0-3.4-1.4-3.5-3.3c0,0,0,0,0,0V27
	c0.3-15,12.7-27,27.7-26.7C166.1,0,178.5,12,178.8,27c-0.2,1.9-1.9,3.3-3.8,3.1c-1.6-0.2-2.9-1.5-3.1-3.1
	c-0.2-11.3-9.5-20.2-20.8-20c-11.3-0.2-20.5,8.8-20.8,20v11.4C130.3,40.2,128.8,41.7,126.9,41.7C126.9,41.7,126.9,41.7,126.9,41.7z"
	/>
</svg>
