<?xml version="1.0" encoding="utf-8"?>
<!-- Generator: Adobe Illustrator 19.0.0, SVG Export Plug-In . SVG Version: 6.00 Build 0)  -->
<svg version="1.1" id="图层_1" xmlns="http://www.w3.org/2000/svg" xmlns:xlink="http://www.w3.org/1999/xlink" x="0px" y="0px"
	 viewBox="50 50 100 100" style="enable-background:new 50 50 100 100;" xml:space="preserve">
<style type="text/css">
	.st0{fill:#666666;}
</style>
<path class="st0" d="M119.7,54.1c6.1,2.6,11.3,6.2,15.8,10.7c4.5,4.5,8,9.8,10.6,15.8c2.6,6,3.8,12.5,3.7,19.3
	c-0.2,6.5-1.4,12.5-3.8,18.2c-2.4,5.6-5.5,10.5-9.4,14.8c-1.2,1.4-2,2.8-2.2,4.4c-0.3,1.5,0.4,2.7,1.9,3.6c2.9,1.5,6.3,2.6,10.3,3.3
	c0.8,0.2-0.8,0.8-4.6,2c-3.8,1.2-9.7,2.2-17.5,2.9c-3.6,0.4-6.8,0.6-9.6,0.7c-2.8,0.1-5.4,0.1-7.7,0c-2.3-0.1-4.4-0.2-6.3-0.3
	c-1.9-0.2-3.7-0.3-5.3-0.6c-6.4-0.7-12.4-2.5-18-5.3C72,140.7,67.1,137,63,132.6c-4.1-4.4-7.3-9.5-9.6-15.2
	c-2.3-5.7-3.4-11.8-3.3-18.3c0.1-6.9,1.4-13.3,4.1-19.3c2.7-6,6.3-11.2,10.8-15.6s9.9-7.9,16-10.5s12.5-3.8,19.4-3.7
	C107.2,50.1,113.7,51.4,119.7,54.1z M78.2,99.8c0-2-0.7-3.6-2-5c-1.4-1.4-3-2-5-2c-2,0-3.6,0.7-5.1,2s-2.1,3-2.1,5
	c0,2,0.7,3.6,2.1,5c1.4,1.4,3.1,2.1,5.1,2.1c2,0,3.6-0.7,5-2.1C77.5,103.4,78.2,101.7,78.2,99.8L78.2,99.8z M104.5,94.6
	c-1.4-1.4-3.1-2.1-5.1-2.1c-2,0-3.8,0.7-5.2,2.1c-1.4,1.4-2.1,3.1-2.1,5.1c0,2,0.7,3.7,2.1,5.1c1.4,1.4,3.1,2.2,5.2,2.2
	c2,0,3.7-0.7,5.1-2.2c1.4-1.4,2.2-3.1,2.2-5.1C106.7,97.7,106,96,104.5,94.6z M132.7,94.6c-1.4-1.4-3.1-2.1-5.1-2.1
	c-2,0-3.8,0.7-5.2,2.1c-1.4,1.4-2.1,3.1-2.1,5s0.7,3.7,2.1,5.1c1.4,1.4,3.1,2.2,5.2,2.2c2,0,3.6-0.7,5.1-2.2
	c1.4-1.4,2.1-3.1,2.1-5.1C134.8,97.7,134.1,96,132.7,94.6z"/>
</svg>
