<?xml version="1.0" encoding="utf-8"?>
<!-- Generator: Adobe Illustrator 19.0.0, SVG Export Plug-In . SVG Version: 6.00 Build 0)  -->
<svg version="1.1" id="图层_1" xmlns="http://www.w3.org/2000/svg" xmlns:xlink="http://www.w3.org/1999/xlink" x="0px" y="0px"
	 viewBox="0 0 100 100" style="enable-background:new 0 0 100 100;" xml:space="preserve">
<style type="text/css">
	.st0{fill:#666666;}
</style>
<path id="XMLID_7_" class="st0" d="M92.3,60.8V13c0-7.2-6.8-13-14.6-13H22.1C13.2,0,6.4,5.9,6.4,13v47.8c0,6.3,4.2,14.4,9.6,18.6
	L38,95.9c3,2.3,7,3.7,11.3,3.7c4.1,0,7.8-1.2,10.7-3.3l22.3-17c3.9-2.9,7.3-7.7,8.9-12.6c0.2-0.3,0.3-0.7,0.3-1.1
	C92.1,63.9,92.3,62.3,92.3,60.8L92.3,60.8z M84.4,13v46.8l-13.6-6.5V6.8h6.4C81.1,6.8,84.4,9.6,84.4,13z M36.1,6.8h26.8v45.4
	l-13.5,8.9l-13.3-6.9L36.1,6.8L36.1,6.8z M21.6,6.8h6.6v47l-13.8,6.3V13C14.4,9.6,17.6,6.8,21.6,6.8z M77.3,74.1L58.8,87.4
	c-2.6-1.8-5.9-2.8-9.5-2.8c-3.9,0-7.5,1.3-10.2,3.3L21.4,74.4c-2.1-1.7-4.1-4.4-5.3-7.2l15.8-7.2l15.5,8.2c1.4,0.8,3.1,0.8,4.4-0.1
	l14-9.2l0.8,0.2l16.4,7.8C81.5,69.7,79.5,72.5,77.3,74.1L77.3,74.1z"/>
</svg>
