<?xml version="1.0" encoding="utf-8"?>
<!-- Generator: Adobe Illustrator 19.0.0, SVG Export Plug-In . SVG Version: 6.00 Build 0)  -->
<svg version="1.1" id="图层_1" xmlns="http://www.w3.org/2000/svg" xmlns:xlink="http://www.w3.org/1999/xlink" x="0px" y="0px"
	 viewBox="0 0 100 100" style="enable-background:new 0 0 100 100;" xml:space="preserve">
<style type="text/css">
	.st0{fill:#666666;}
</style>
<path id="XMLID_11_" class="st0" d="M71.6,50H28.7c-2,0-3.6-1.6-3.6-3.6c0-2,1.6-3.6,3.6-3.6h42.9c2,0,3.6,1.6,3.6,3.6
	C75.1,48.4,73.5,50,71.6,50z M71.6,28.6H28.7c-2,0-3.6-1.6-3.6-3.6s1.6-3.6,3.6-3.6h42.9c2,0,3.6,1.6,3.6,3.6S73.5,28.6,71.6,28.6z"
	/>
<path id="XMLID_8_" class="st0" d="M82.3,100H18c-5.9,0-10.7-4.8-10.7-10.7V10.7C7.3,4.8,12.1,0,18,0h64.3C88.2,0,93,4.8,93,10.7
	v78.6C93,95.2,88.2,100,82.3,100z M18,7.1c-2,0-3.6,1.6-3.6,3.6v78.6c0,2,1.6,3.6,3.6,3.6h64.3c2,0,3.6-1.6,3.6-3.6V10.7
	c0-2-1.6-3.6-3.6-3.6H18z"/>
<path id="XMLID_1_" class="st0" d="M46.6,78.8c-0.9,0-1.8-0.4-2.5-1.1l-5.4-5.2L36,74.3c-0.5,0.5-1.2,0.7-2,0.7h-5.4
	c-2,0-3.6-1.6-3.6-3.6c0-2,1.6-3.6,3.6-3.6H33l4.1-2.9c1.4-1.1,3.4-0.9,4.6,0.4l5.4,5.2l2.9-2c0.5-0.4,1.2-0.7,2-0.7h8.9
	c2,0,3.6,1.6,3.6,3.6c0,2-1.6,3.6-3.6,3.6H53l-4.5,3C48,78.6,47.3,78.8,46.6,78.8L46.6,78.8z"/>
</svg>
