<?xml version="1.0" encoding="utf-8"?>
<!-- Generator: Adobe Illustrator 19.0.0, SVG Export Plug-In . SVG Version: 6.00 Build 0)  -->
<svg version="1.1" id="图层_1" xmlns="http://www.w3.org/2000/svg" xmlns:xlink="http://www.w3.org/1999/xlink" x="0px" y="0px"
	 viewBox="100 0 100 100" style="enable-background:new 100 0 100 100;" xml:space="preserve">
<style type="text/css">
	.st0{fill:#666666;}
</style>
<path class="st0" d="M182.9,68v-29c0-2-1.6-3.6-3.6-3.6s-3.6,1.6-3.6,3.6v24.1h-51V7.3h51V17c0,2,1.6,3.6,3.6,3.6s3.6-1.6,3.6-3.6
	V4.9c0-2.7-2.2-4.9-4.9-4.9h-55.9c-2.7,0-4.9,2.2-4.9,4.9v89.9c0,2.7,2.2,4.9,4.9,4.9h55.9c2.7,0,4.9-2.2,4.9-4.9L182.9,68
	C182.9,68,182.9,68,182.9,68z M175.7,92.3h-51V70.5h51V92.3L175.7,92.3z"/>
<path class="st0" d="M150.1,87.5c3.4,0,6.1-2.7,6.1-6.1c0-3.4-2.7-6.1-6.1-6.1c-3.4,0-6.1,2.7-6.1,6.1
	C144.1,84.8,146.8,87.5,150.1,87.5z"/>
</svg>
