<?xml version="1.0" encoding="utf-8"?>
<!-- Generator: Adobe Illustrator 19.0.0, SVG Export Plug-In . SVG Version: 6.00 Build 0)  -->
<svg version="1.1" id="图层_1" xmlns="http://www.w3.org/2000/svg" xmlns:xlink="http://www.w3.org/1999/xlink" x="0px" y="0px"
	 viewBox="0 0 100 100" style="enable-background:new 0 0 100 100;" xml:space="preserve">
<style type="text/css">
	.st0{fill:#666666;}
</style>
<path id="XMLID_5_" class="st0" d="M96.5,75.8c-8.3-9-11.9-23.5-11.9-37.1c0-7.7-1.7-17.4-8.7-24.1l0.1-0.1c-0.3-0.3-0.6-0.5-1-0.8
	c-4.2-3.7-10.3-6.4-18.8-7.1h-0.1c-0.1,0-0.2-0.1-0.4-0.1c-0.6-0.1-1.2-0.1-1.7-0.2V3.2C54,1.3,52.5,0,50.4,0h-0.7
	C47.5,0,46,1.3,46,3.2v3.2c-0.6,0.1-1.1,0.1-1.7,0.2c-0.1,0-0.3,0.1-0.4,0.1h-0.1c-8.5,0.8-14.5,3.4-18.8,7.1
	c-0.3,0.3-0.7,0.5-1,0.8l0.1,0.1c-7,6.7-8.7,16.4-8.7,24.1c0,13.5-3.6,28.1-11.9,37.1c-8.3,9,0,11,4.6,11h83.6
	C96.5,86.8,104.7,84.9,96.5,75.8z M83.9,80.6H16.2c-8.6,0-7.6,0.3-2.1-7.1c5.4-7.4,9.4-22.3,9.4-33.9c0-8.3,1.5-18.6,11-23.7
	c2.8-1.4,5.6-2.1,8.1-2.6c2.1-0.3,4.5-0.5,7.1-0.5h1c2.6-0.1,5,0.1,7.1,0.5c2.4,0.4,5.3,1.2,8.1,2.6c9.5,5,11,15.5,11,23.7
	c0,11.6,4,26.4,9.4,33.9C91.4,81,92.5,80.6,83.9,80.6L83.9,80.6z M50.3,100c10.8,0,10.8-9.6,10.8-9.6H39.5
	C39.5,90.4,39.5,100,50.3,100z"/>
</svg>
