<?xml version="1.0" encoding="utf-8"?>
<!-- Generator: Adobe Illustrator 19.0.0, SVG Export Plug-In . SVG Version: 6.00 Build 0)  -->
<svg version="1.1" id="图层_1" xmlns="http://www.w3.org/2000/svg" xmlns:xlink="http://www.w3.org/1999/xlink" x="0px" y="0px"
	 viewBox="50 50 100 100" style="enable-background:new 50 50 100 100;" xml:space="preserve">
<style type="text/css">
	.st0{fill:#666666;}
</style>
<path class="st0" d="M96.6,63.2c0,0.9,0.3,1.7,1,2.4c0.6,0.6,1.5,1,2.4,1s1.8-0.3,2.4-1c0.6-0.6,1-1.5,1-2.4s-0.3-1.7-1-2.4
	c-0.6-0.6-1.5-1-2.4-1s-1.8,0.3-2.4,1C96.9,61.5,96.6,62.3,96.6,63.2z"/>
<path class="st0" d="M100,131.7c-23,0-41.7-18.3-41.7-40.9S77,50,100,50s41.7,18.3,41.7,40.9S123,131.7,100,131.7z M100,57
	c-19,0-34.6,15.2-34.6,33.9S81,124.7,100,124.7s34.6-15.2,34.6-33.9S119,57,100,57z"/>
<path class="st0" d="M100,111.9c-11.9,0-21.5-9.5-21.5-21.1s9.7-21.1,21.5-21.1s21.5,9.5,21.5,21.1S111.9,111.9,100,111.9z
	 M100,76.7c-8,0-14.4,6.4-14.4,14.2S92,105,100,105s14.4-6.4,14.4-14.2S108,76.7,100,76.7z M131.4,150H68.6c-2,0-3.5-1.6-3.5-3.5
	c0-1.9,1.6-3.5,3.5-3.5h62.8c2,0,3.5,1.6,3.5,3.5C134.9,148.4,133.4,150,131.4,150L131.4,150z"/>
<path class="st0" d="M80.4,148.8c-0.7,0-1.4-0.2-2-0.6c-1.6-1.1-2-3.2-0.9-4.8l11.3-16.1c1.1-1.6,3.3-2,4.9-0.9
	c1.6,1.1,2,3.2,0.9,4.8l-11.3,16.1C82.7,148.3,81.5,148.8,80.4,148.8L80.4,148.8z M119.6,148.8c-1.1,0-2.2-0.5-3-1.5l-11.2-16.1
	c-1.1-1.6-0.7-3.7,0.9-4.8c1.6-1.1,3.8-0.7,4.9,0.9l11.3,16.1c1.1,1.6,0.7,3.7-0.9,4.8C121,148.6,120.3,148.8,119.6,148.8z"/>
</svg>
