<?xml version="1.0" encoding="utf-8"?>
<!-- Generator: Adobe Illustrator 19.0.0, SVG Export Plug-In . SVG Version: 6.00 Build 0)  -->
<svg version="1.1" id="图层_1" xmlns="http://www.w3.org/2000/svg" xmlns:xlink="http://www.w3.org/1999/xlink" x="0px" y="0px"
	 viewBox="100.1 0 100 100" style="enable-background:new 100.1 0 100 100;" xml:space="preserve">
<style type="text/css">
	.st0{fill:#666666;}
</style>
<path class="st0" d="M141.5,75c9,0,17.1-3.5,23.1-9.2l0,0c0.2-0.2,0.3-0.5,0.6-0.7c1.6-1.6,4.3-1.6,5.9,0l27.8,27.8
	c1.6,1.6,1.6,4.3,0,5.9c-1.6,1.6-4.3,1.6-5.9,0l-24.9-24.8c-7.2,5.9-16.3,9.4-26.3,9.4c-23,0-41.7-18.7-41.7-41.7S118.8,0,141.8,0
	s41.7,18.7,41.7,41.7c0,4.5-0.8,8.9-2.1,13c-0.3,2-2,3.5-4.1,3.5c-2.3,0-4.2-1.9-4.2-4.2l0-0.4c0-0.4,0.1-0.8,0.2-1.2l0,0
	c1.2-3.4,1.9-7.1,1.9-11c0-18.5-15-33.6-33.6-33.6c-18.6,0-33.6,15-33.6,33.6C107.9,60,122.9,75,141.5,75z"/>
</svg>
