<?xml version="1.0" encoding="utf-8"?>
<!-- Generator: Adobe Illustrator 19.0.0, SVG Export Plug-In . SVG Version: 6.00 Build 0)  -->
<svg version="1.1" id="图层_1" xmlns="http://www.w3.org/2000/svg" xmlns:xlink="http://www.w3.org/1999/xlink" x="0px" y="0px"
	 viewBox="100 0 100 100" style="enable-background:new 100 0 100 100;" xml:space="preserve">
<style type="text/css">
	.st0{fill:#666666;}
</style>
<path class="st0" d="M118.3,45.4h34.6c0.3,0,0.5-0.2,0.5-0.5c0,0,0,0,0,0v-8.3c0-0.3-0.2-0.5-0.5-0.5c0,0,0,0,0,0h-34.6
	c-0.3,0-0.5,0.2-0.5,0.5c0,0,0,0,0,0v8.3C117.8,45.2,118,45.4,118.3,45.4z M118.3,26.9L118.3,26.9l41.1,0c0.3,0,0.5-0.2,0.5-0.5
	c0,0,0,0,0,0v-8.3c0-0.3-0.2-0.5-0.5-0.5c0,0,0,0,0,0h-41.1c-0.3,0-0.5,0.2-0.5,0.5v8.3C117.8,26.7,118,26.9,118.3,26.9
	C118.3,26.9,118.3,26.9,118.3,26.9z M197.8,18.5L176.4,1.2c-1.1-0.9-2.5-1.3-3.9-1.2h-64.4c-4.5,0-8.2,3.7-8.2,8.2v83.6
	c0,4.5,3.7,8.2,8.2,8.2h83.7c4.5,0,8.2-3.7,8.2-8.2V23.1C200,21.3,199.1,19.6,197.8,18.5z M191.6,91.6h-83.2V8.4h62.4v15.2
	c0,0.4,0.3,0.7,0.7,0.7l20.1,0V91.6L191.6,91.6z M170.2,73h-51.9c-0.3,0-0.5,0.2-0.5,0.5v8.3c0,0.3,0.2,0.5,0.5,0.5h51.9
	c0.3,0,0.5-0.2,0.5-0.5c0,0,0,0,0,0v-8.3C170.8,73.3,170.5,73,170.2,73C170.2,73,170.2,73,170.2,73z M117.8,55.1v8.3
	c0,0.3,0.2,0.5,0.5,0.5h63.4c0.3,0,0.5-0.2,0.5-0.5c0,0,0,0,0,0v-8.3c0-0.3-0.2-0.5-0.5-0.5h-63.4C118,54.5,117.8,54.8,117.8,55.1z"
	/>
</svg>
