<?xml version="1.0" encoding="utf-8"?>
<!-- Generator: Adobe Illustrator 19.0.0, SVG Export Plug-In . SVG Version: 6.00 Build 0)  -->
<svg version="1.1" id="图层_1" xmlns="http://www.w3.org/2000/svg" xmlns:xlink="http://www.w3.org/1999/xlink" x="0px" y="0px"
	 viewBox="50 50 100 100" style="enable-background:new 50 50 100 100;" xml:space="preserve">
<style type="text/css">
	.st0{fill:#666666;}
</style>
<path class="st0" d="M117.6,133.7c1.3-1.3,1.9-2.8,2-4.6l-0.2-51.2c0-1.8-0.5-3.8-1.3-6c-0.9-2.2-2-3.9-3.2-5.1L99.8,52
	c-1.3-1.2-2.8-1.8-4.6-1.8c-1.8,0-3.3,0.6-4.6,1.9L75.8,66.9c-1.3,1.3-2.4,3-3.2,5.2c-0.9,2.2-1.4,4.1-1.3,6l0.1,51.3
	c0,1.8,0.7,3.3,1.9,4.5c1.3,1.2,2.8,1.9,4.6,2l35.1-0.2C114.8,135.6,116.3,135,117.6,133.7L117.6,133.7z M95.2,76.8
	c-1.8,0-3.3-0.6-4.5-1.9c-1.3-1.2-1.9-2.7-1.9-4.5c0-1.8,0.7-3.3,1.9-4.5c1.3-1.3,2.7-1.9,4.5-1.9c1.8,0,3.3,0.6,4.5,1.9
	s1.9,2.7,1.9,4.5c0,1.8-0.7,3.3-1.9,4.5C98.6,76.2,97,76.8,95.2,76.8L95.2,76.8z M133.3,142.8V91.6c0-1.8-0.6-3.8-1.5-6
	c-0.9-2.2-2-3.9-3.2-5.1l-8.1-8c1.3,1.2,2.4,3,3.2,5.1c0.9,2.2,1.5,4.1,1.5,6v51.2c-0.1,1.9-0.7,3.3-2,4.6c-1.3,1.3-2.7,2-4.5,2
	H85.1c0,1.4,0.1,2.7,0.3,3.6c0.2,0.9,0.8,1.7,1.6,2.6c1.3,1.2,2.8,1.8,4.6,1.8h35.2c1.8,0,3.3-0.8,4.5-2
	C132.6,146.1,133.2,144.6,133.3,142.8L133.3,142.8z"/>
</svg>
