<?xml version="1.0" encoding="utf-8"?>
<!-- Generator: Adobe Illustrator 19.0.0, SVG Export Plug-In . SVG Version: 6.00 Build 0)  -->
<svg version="1.1" id="图层_1" xmlns="http://www.w3.org/2000/svg" xmlns:xlink="http://www.w3.org/1999/xlink" x="0px" y="0px"
	 viewBox="50 50 100 100" style="enable-background:new 50 50 100 100;" xml:space="preserve">
<style type="text/css">
	.st0{fill:#666666;}
</style>
<path class="st0" d="M96.7,102.3c15,0,27.2-11.7,27.2-26.2S111.8,50,96.7,50c-15,0-27.2,11.7-27.2,26.2
	C69.6,90.6,81.8,102.3,96.7,102.3L96.7,102.3z M86.3,107.1c-19,0-33.1,12.6-33.1,30.8v1.9c0,9.5,15.2,9.5,34.3,9.5h19.3
	c-8.2-5.1-13.6-13.8-13.6-23.7c0,0,0,0,0-0.1c0-7,2.7-13.5,7.2-18.4L86.3,107.1L86.3,107.1z"/>
<path class="st0" d="M122.5,149.7c3.3,0,6.4-0.6,9.5-1.8c3-1.2,5.6-2.9,7.7-5c2.2-2.1,3.9-4.6,5.1-7.5c1.3-2.8,1.9-5.9,1.9-9.1
	c0-3.2-0.6-6.2-1.9-9.1c-1.3-2.8-3-5.3-5.1-7.4c-2.2-2.1-4.8-3.8-7.7-5c-3-1.3-6.1-1.8-9.5-1.8c-3.4,0-6.5,0.6-9.5,1.8
	c-3,1.2-5.6,2.8-7.8,5c-2.2,2.1-4,4.6-5.2,7.4c-1.2,2.6-1.9,5.7-1.9,9c0,0,0,0.1,0,0.1c0,3.2,0.6,6.3,1.9,9.1c1.3,2.9,3,5.4,5.2,7.5
	c2.2,2.1,4.8,3.8,7.8,5C116,149.1,119.1,149.7,122.5,149.7L122.5,149.7z M134.5,122.4c2.2,0,4.1,1.8,4.1,3.9v0c0,1-0.4,1.9-1.2,2.5
	c-0.8,0.6-1.8,0.9-2.9,0.9v-0.2h-8.8v8.1c0,1.1-0.3,2-1,2.8c-0.7,0.7-1.6,1.1-2.8,1.1c-1.1,0-2-0.4-2.6-1.1c-0.6-0.7-1-1.7-1-2.8
	c0,0,0,0,0,0v-8.1h-7.7c-1.1,0-2.1-0.2-2.9-0.8c-0.8-0.5-1.2-1.3-1.2-2.4c0-1,0.4-1.9,1.2-2.7c0.8-0.7,1.7-1.1,2.9-1.1h7.7v-7.9
	c0-1,0.4-1.9,1-2.7c0.6-0.7,1.5-1.1,2.6-1.1c1.1,0,2,0.4,2.8,1.1c0.7,0.8,1,1.7,1,2.7v7.9L134.5,122.4L134.5,122.4z"/>
</svg>
