<?xml version="1.0" encoding="utf-8"?>
<!-- Generator: Adobe Illustrator 19.0.0, SVG Export Plug-In . SVG Version: 6.00 Build 0)  -->
<svg version="1.1" id="图层_1" xmlns="http://www.w3.org/2000/svg" xmlns:xlink="http://www.w3.org/1999/xlink" x="0px" y="0px"
	 viewBox="50 50 100 100" style="enable-background:new 50 50 100 100;" xml:space="preserve">
<style type="text/css">
	.st0{fill:#666666;}
</style>
<path class="st0" d="M110.4,149.7H89.3c-5.8,0-10.5-4.8-10.5-10.7v-11.2c0-1.2-0.7-2.3-1.6-3c-11.3-7.7-17.9-20.7-17.8-34.4
	C59.6,68.9,76.5,51.3,97.8,50c11.3-0.5,21.8,3.4,30.1,11.2c8.1,7.8,12.5,18.3,12.5,29.7c0,13.5-6.7,26.2-17.8,33.8
	c-1.1,0.7-1.6,1.8-1.6,3v11.2C121,144.9,116.2,149.7,110.4,149.7z M99.9,57.2h-1.8C80.9,58.1,66.7,73,66.5,90.5
	c-0.2,11.4,5.3,21.9,14.6,28.3c3,2,4.7,5.3,4.7,8.9v11.4c0,2,1.6,3.6,3.5,3.6h21.1c1.9,0,3.5-1.6,3.5-3.6v-11.2
	c0-3.6,1.8-6.9,4.7-8.9c9.1-6.2,14.6-16.7,14.6-28c0-9.4-3.7-18.2-10.4-24.6C116.6,60.4,108.5,57.2,99.9,57.2z"/>
<path class="st0" d="M117.5,135.5H82.3c-1.9,0-3.5-1.6-3.5-3.6s1.6-3.6,3.5-3.6h35.2c1.9,0,3.5,1.6,3.5,3.6S119.4,135.5,117.5,135.5
	z"/>
</svg>
