<?xml version="1.0" encoding="utf-8"?>
<!-- Generator: Adobe Illustrator 19.0.0, SVG Export Plug-In . SVG Version: 6.00 Build 0)  -->
<svg version="1.1" id="图层_1" xmlns="http://www.w3.org/2000/svg" xmlns:xlink="http://www.w3.org/1999/xlink" x="0px" y="0px"
	 viewBox="50 50 100 100" style="enable-background:new 50 50 100 100;" xml:space="preserve">
<style type="text/css">
	.st0{fill:#666666;}
</style>
<path class="st0" d="M138.9,70h-23.1l12.6-9.7c2.5-1.9,3-5.5,1.1-8c-1.8-2.5-5.3-3-7.8-1.1L100,67.9L78.3,51.2
	c-2.5-1.9-5.9-1.4-7.8,1.1c-1.8,2.5-1.3,6.1,1.1,8L84.3,70H61.1C55,70,50,75.1,50,81.4v57.1c0,6.3,5,11.4,11.1,11.4h77.8
	c6.1,0,11.1-5.1,11.1-11.4V81.4C150,75.1,145,70,138.9,70z M117.5,113.2l-24,16.5c-2.6,1.8-4.6,0.6-4.6-2.5V92.9
	c0-3.1,2.1-4.3,4.6-2.5l24,16.5C120.1,108.6,120.1,111.5,117.5,113.2z"/>
</svg>
