<?xml version="1.0" encoding="utf-8"?>
<!-- Generator: Adobe Illustrator 19.0.0, SVG Export Plug-In . SVG Version: 6.00 Build 0)  -->
<svg version="1.1" id="图层_1" xmlns="http://www.w3.org/2000/svg" xmlns:xlink="http://www.w3.org/1999/xlink" x="0px" y="0px"
	 viewBox="100 0 100 100" style="enable-background:new 100 0 100 100;" xml:space="preserve">
<style type="text/css">
	.st0{fill:#666666;}
</style>
<path class="st0" d="M150.3,31.4c-10.2,0-18.7,8.5-18.7,18.7c0,10.4,8.5,18.7,18.7,18.7c10.4,0,18.7-8.3,18.7-18.7
	c0-5.2-1.9-9.6-5.5-13.2C159.9,33.2,155.5,31.4,150.3,31.4z M150.3,62.6c-6.7,0-12.6-5.8-12.6-12.6s5.7-12.5,12.5-12.5
	c3.4,0,6.3,1.3,8.8,3.7c2.4,2.4,3.7,5.4,3.7,8.8c0,3.4-1.2,6.4-3.6,8.9C156.6,61.3,153.7,62.6,150.3,62.6L150.3,62.6z M199.9,49.3
	c0-0.1-0.1-0.4-0.1-0.5c0-0.1,0-0.3-0.2-0.5c-4.4-10.2-11.1-18.2-20.1-24c-9-5.8-18.7-8.8-29.3-8.8c-20.5-0.3-41,12.2-49.9,32.7
	c0,0.1,0.1,0.3-0.1,0.4V49c-0.1,0.1-0.1,0.2-0.1,0.2c-0.1,0.4-0.1,0.7-0.1,0.9c0,0.3,0.1,0.5,0.1,0.8c0,0.1,0,0.2,0.1,0.3v0.2
	c0,0.3,0.1,0.1,0.1,0.5c4.5,10.2,11.2,18.2,20.2,24c9.1,5.8,18.9,8.6,29.5,8.6c20.5,0.3,40.9-12,49.6-32.6c0.2-0.1,0.1-0.4,0.2-0.4
	v-0.3c0.1-0.1,0.1-0.2,0.1-0.2c0.1-0.4,0.1-0.7,0.1-0.9C200,49.8,199.9,49.6,199.9,49.3z M150,78.2c-9.3,0-17.7-2.4-25.6-7.2
	c-7.9-4.9-13.8-11.8-17.9-20.9c4.1-9.1,10.1-16,18-20.9c7.9-5,16.5-7.4,25.7-7.4c17.5-0.3,35.1,9.9,43.4,28.3
	c-4.1,9.1-10,16-17.9,20.9C167.7,75.7,159.3,78.2,150,78.2z"/>
</svg>
