<?xml version="1.0" encoding="utf-8"?>
<!-- Generator: Adobe Illustrator 19.0.0, SVG Export Plug-In . SVG Version: 6.00 Build 0)  -->
<svg version="1.1" id="图层_1" xmlns="http://www.w3.org/2000/svg" xmlns:xlink="http://www.w3.org/1999/xlink" x="0px" y="0px"
	 viewBox="50 50 100 100" style="enable-background:new 50 50 100 100;" xml:space="preserve">
<style type="text/css">
	.st0{fill:#666666;}
</style>
<path class="st0" d="M100,50c-14.4,0-27.4,6.2-36.6,16c-0.1-0.1-1.3,1.4-1.3,1.4C54.6,76.1,50,87.6,50,100c0,12.5,4.7,24,12.3,32.8
	l1,1.3c0.1-0.1,0.1-0.1,0.1-0.1c9.1,9.9,22.1,16,36.6,16c27.6,0,50-22.4,50-50S127.6,50,100,50z M102.8,81.7
	c6.8-0.3,13.4-1.3,19.4-3.1c1.7,5.5,2.8,11.8,3,18.4h-22.4L102.8,81.7z M102.8,76.1V55.9c7.1,1.4,13.3,7.9,17.4,17.5
	C114.9,74.9,109,75.9,102.8,76.1z M97.2,55.9v20.2c-6.2-0.2-12.1-1.1-17.5-2.6C83.8,63.9,90.1,57.3,97.2,55.9z M97.2,81.8v15.4H74.7
	c0.3-6.6,1.3-12.8,3-18.3C83.7,80.6,90.3,81.6,97.2,81.8z M69.1,97.2H55.8c0.6-8.9,3.7-17,8.8-23.7c2.4,1.4,5,2.6,7.8,3.7
	C70.5,83.1,69.3,89.9,69.1,97.2z M69.1,102.8c0.3,7.2,1.4,14,3.2,20c-2.8,1-5.3,2.3-7.8,3.7c-5.1-6.7-8.2-14.8-8.7-23.7L69.1,102.8
	L69.1,102.8z M74.7,102.8h22.4v15.3c-6.8,0.2-13.4,1.1-19.5,2.9C76,115.6,75,109.4,74.7,102.8L74.7,102.8z M97.2,123.8V144
	c-7.2-1.4-13.4-8-17.5-17.6C85.1,124.8,91,124,97.2,123.8z M102.8,144v-20.2c6.1,0.2,12.1,1.1,17.5,2.7
	C116.1,136,109.9,142.6,102.8,144z M102.8,118.2v-15.4h22.4c-0.3,6.6-1.3,12.9-3,18.4C116.3,119.4,109.7,118.4,102.8,118.2z
	 M130.9,102.8h13.3c-0.6,9-3.8,17.2-9,24c-2.4-1.4-4.9-2.6-7.6-3.7C129.5,117,130.7,110.1,130.9,102.8L130.9,102.8z M130.9,97.2
	c-0.3-7.3-1.4-14.1-3.3-20.2c2.8-1,5.2-2.4,7.6-3.7c5.1,6.7,8.4,15,9,24H130.9L130.9,97.2z M131.5,68.8c-1.8,1-3.8,2-5.8,2.8
	c-1.9-4.5-4.3-8.5-7.1-11.8C123.4,62,127.8,65.1,131.5,68.8z M81.4,59.8c-2.8,3.3-5.2,7.4-7.2,12c-2.1-0.8-4.1-1.7-5.9-2.8
	C72.1,65.2,76.4,62.1,81.4,59.8z M68.3,130.9c1.8-1,3.8-2,5.9-2.8c2,4.7,4.4,8.7,7.2,12C76.4,137.9,72.1,134.8,68.3,130.9z
	 M118.6,140.2c2.8-3.3,5.1-7.2,7.1-11.8c2.1,0.8,4,1.7,5.8,2.8C127.8,134.9,123.4,137.9,118.6,140.2L118.6,140.2z"/>
</svg>
