<?xml version="1.0" encoding="utf-8"?>
<!-- Generator: Adobe Illustrator 19.0.0, SVG Export Plug-In . SVG Version: 6.00 Build 0)  -->
<svg version="1.1" id="图层_1" xmlns="http://www.w3.org/2000/svg" xmlns:xlink="http://www.w3.org/1999/xlink" x="0px" y="0px"
	 viewBox="50 50 100 100" style="enable-background:new 50 50 100 100;" xml:space="preserve">
<style type="text/css">
	.st0{fill:#666666;}
</style>
<path class="st0" d="M56.5,123.8c0-8.7,5.5-12.1,9.8-13.5c-0.8,4.2-1.2,9-1.2,13.5c0,4.6,0.4,9.6,1.3,13.9c-2.7-0.6-5-1.7-6.6-3.5
	C56.1,130.2,56.5,124.1,56.5,123.8 M140.2,134.3c-1.6,1.8-3.8,2.9-6.6,3.5c0.9-4.3,1.3-9.3,1.3-13.9c0-4.5-0.4-9.2-1.2-13.4
	c4.2,1.4,9.8,4.9,9.8,13.7C143.5,124.1,143.9,130.2,140.2,134.3 M125.4,142.9c-1.3-2-3.3-8.6-3.3-19.1s2-17.1,3.3-19.1
	c1.3,2,3.3,8.6,3.3,19.1C128.7,134.3,126.7,140.9,125.4,142.9 M74.6,104.8c1.3,2,3.3,8.6,3.3,19.1c0,10.5-2,17-3.3,19.1
	c-1.3-2-3.3-8.6-3.3-19.1S73.3,106.8,74.6,104.8 M68.4,144.6c1.5,3.2,3.5,5.2,6.2,5.2c7,0,9.5-14,9.5-25.9c0-12-2.5-26-9.5-26
	c-2.7,0-4.8,2.1-6.2,5.4c-1.8,0.3-3.6,0.8-5.4,1.5v-20c0.8-3.3,8-28.1,36.7-28.1c28.8,0,35.7,25,36.4,28.2v19.5
	c-1.5-0.5-3-0.9-4.6-1.2c-1.5-3.3-3.5-5.4-6.2-5.4c-7,0-9.5,14-9.5,26c0,12,2.5,26,9.5,26c2.7,0,4.7-2,6.2-5.2
	c5.6-0.4,10.1-2.4,13.3-6c5.5-6.2,4.9-14.7,4.9-14.8c0-7.7-3.2-12.8-7.3-16V84.5l-0.1-0.7c-0.1-0.3-7.4-33.7-42.6-33.7
	c-35.2,0-42.8,33.1-42.9,33.4l-0.1,24.8c-3.7,3.2-6.5,8-6.5,15.1c0,0.4-0.6,8.9,4.9,15C58.3,142.2,62.8,144.2,68.4,144.6"/>
</svg>
