<?xml version="1.0" encoding="utf-8"?>
<!-- Generator: Adobe Illustrator 19.0.0, SVG Export Plug-In . SVG Version: 6.00 Build 0)  -->
<svg version="1.1" id="图层_1" xmlns="http://www.w3.org/2000/svg" xmlns:xlink="http://www.w3.org/1999/xlink" x="0px" y="0px"
	 viewBox="100 0 100 100" style="enable-background:new 100 0 100 100;" xml:space="preserve">
<style type="text/css">
	.st0{fill:#666666;}
</style>
<path class="st0" d="M192.7,0h-85.3c-4,0-7.3,3.3-7.3,7.3v85.3c0,4,3.3,7.3,7.3,7.3h85.3c4,0,7.3-3.3,7.3-7.3V7.3
	C200,3.3,196.7,0,192.7,0z M124.7,84.7h-12.9v-12h12.9L124.7,84.7L124.7,84.7z M124.7,56.7h-12.9v-12h12.9L124.7,56.7L124.7,56.7z
	 M124.7,28.6h-12.9v-12h12.9L124.7,28.6L124.7,28.6z M162.8,52.6l-20.1,12.1c-0.5,0.3-1.1,0.5-1.6,0.5c-0.5,0-1.1-0.1-1.6-0.4
	c-1-0.6-1.6-1.6-1.6-2.8V39c0-1.1,0.6-2.2,1.6-2.7c1-0.6,2.2-0.6,3.2-0.1l20.1,10.9c1,0.5,1.6,1.6,1.7,2.7
	C164.4,51,163.8,52,162.8,52.6z M187.7,84.7h-12.9v-12h12.9V84.7z M187.7,56.7h-12.9v-12h12.9V56.7z M187.7,28.6h-12.9v-12h12.9
	V28.6z"/>
</svg>
