<?xml version="1.0" encoding="utf-8"?>
<!-- Generator: Adobe Illustrator 19.0.0, SVG Export Plug-In . SVG Version: 6.00 Build 0)  -->
<svg version="1.1" id="图层_1" xmlns="http://www.w3.org/2000/svg" xmlns:xlink="http://www.w3.org/1999/xlink" x="0px" y="0px"
	 viewBox="50 50 100 100" style="enable-background:new 50 50 100 100;" xml:space="preserve">
<style type="text/css">
	.st0{fill:#666666;}
</style>
<path class="st0" d="M121.8,80.3c0-15.7-12.6-28.5-28.2-28.5c-15.6,0-28.2,12.8-28.2,28.5c0,11,6.2,20.6,15.3,25.3
	C63.6,111,51.1,126.2,50,145h6.1c1.3-20.3,23-36.2,37.4-36.2C109.1,108.8,121.8,96.1,121.8,80.3z M147.7,127.2
	c-0.2-0.1-0.4-0.1-0.6-0.1H109c-1.4,0-2.5,1.2-2.5,2.6c0,1.4,1.1,2.6,2.5,2.6h32.2l-8.7,8.6c-1,1-1,2.6,0,3.6c1,1,2.6,1,3.6,0
	l13-12.9c1-1,1-2.6,0-3.6C148.7,127.4,148.2,127.3,147.7,127.2z M108.5,119.1c0.2,0.1,0.4,0.1,0.6,0.1h38.3c1.4,0,2.5-1.1,2.5-2.5
	c0-1.4-1.1-2.5-2.5-2.5h-32.4l8.7-8.7c1-1,1-2.7,0-3.7c-1-1-2.6-1-3.6,0l-13.1,13c-1,1-1,2.6,0,3.6c0,0,0,0,0,0
	C107.5,118.9,108,119.1,108.5,119.1z"/>
</svg>
