<?xml version="1.0" encoding="utf-8"?>
<!-- Generator: Adobe Illustrator 19.0.0, SVG Export Plug-In . SVG Version: 6.00 Build 0)  -->
<svg version="1.1" id="图层_1" xmlns="http://www.w3.org/2000/svg" xmlns:xlink="http://www.w3.org/1999/xlink" x="0px" y="0px"
	 viewBox="50 50 100 100" style="enable-background:new 50 50 100 100;" xml:space="preserve">
<style type="text/css">
	.st0{fill:#666666;}
</style>
<path class="st0" d="M93.2,135.6c-4,0-7.3,3.2-7.3,7.2c0,4,3.3,7.2,7.3,7.2c4,0,7.3-3.2,7.3-7.2C100.5,138.8,97.2,135.6,93.2,135.6"
	/>
<path class="st0" d="M127.4,135.6c-4,0-7.3,3.2-7.3,7.2c0,4,3.3,7.2,7.3,7.2c4,0,7.3-3.2,7.3-7.2
	C134.7,138.8,131.5,135.6,127.4,135.6"/>
<path class="st0" d="M132.5,124.8h-42L71.7,70.8c-0.5-1.5-2-2.5-3.6-2.5H53.8c-2.1,0-3.8,1.7-3.8,3.8c0,2.1,1.7,3.8,3.8,3.8h11.6
	l18.8,54.1c0.5,1.5,2,2.5,3.6,2.5h44.8c2.1,0,3.8-1.7,3.8-3.8C136.4,126.5,134.6,124.8,132.5,124.8"/>
<path class="st0" d="M130.5,90.2l-9.9,12l-3.9,4.8l-3.9-4.8l-9.9-11.9L95.1,81H83.3l14.3,37.6h37L150,81h-11.8L130.5,90.2z"/>
<path class="st0" d="M126.1,50h-18.8v25.1l-10.4,0l4.9,5.9l5.1,6.1l9.9,12l9.9-12l5.1-6.1l4.9-5.9l-10.4,0V50z"/>
</svg>
