<?xml version="1.0" encoding="utf-8"?>
<!-- Generator: Adobe Illustrator 19.0.0, SVG Export Plug-In . SVG Version: 6.00 Build 0)  -->
<svg version="1.1" id="图层_1" xmlns="http://www.w3.org/2000/svg" xmlns:xlink="http://www.w3.org/1999/xlink" x="0px" y="0px"
	 viewBox="50 50 100 100" style="enable-background:new 50 50 100 100;" xml:space="preserve">
<style type="text/css">
	.st0{fill:#666666;}
</style>
<path class="st0" d="M63.6,118.2c8.4,8.1,19.6,13,31.5,13.8v11.9h-8.4c0,0-0.1,0-0.1,0c-1.8,0.1-3.2,1.5-3.2,3.2
	c0.1,1.7,1.6,3.1,3.4,3c0,0,0.1,0,0.1,0h22.6c0,0,0.1,0,0.1,0c1.8,0,3.3-1.5,3.2-3.2s-1.5-3.1-3.4-3.1c0,0-0.1,0-0.1,0
	c0,0-0.1,0-0.1,0h-7.7V132c12.5-0.6,24.1-5.6,32.9-14.1c1.3-1.2,1.3-3.1,0.1-4.4c-0.7-0.6-1.6-1-2.5-0.9c-0.9,0-1.7,0.4-2.3,1.1
	c-8.1,7.9-19.3,12.3-30.9,12.3c-11.7,0-22.9-4.5-31.1-12.5l0,0c-0.6-0.6-1.5-1-2.4-0.9c-1.8,0.1-3.2,1.5-3.1,3.2l0,0
	C62.3,116.7,62.8,117.6,63.6,118.2"/>
<path class="st0" d="M79.9,73.4c0-9.5,8.1-17.2,18.2-17.2c10,0,18.2,7.7,18.2,17.2v23c0,9.5-8.1,17.2-18.2,17.2
	c-10,0-18.2-7.7-18.2-17.2V73.4z M98.1,119.9c13.6,0,24.7-10.5,24.7-23.4v-23c0-12.9-11.1-23.4-24.7-23.4
	c-13.6,0-24.7,10.5-24.7,23.4v23C73.4,109.4,84.5,119.9,98.1,119.9z"/>
</svg>
