<?xml version="1.0" encoding="utf-8"?>
<!-- Generator: Adobe Illustrator 19.0.0, SVG Export Plug-In . SVG Version: 6.00 Build 0)  -->
<svg version="1.1" id="图层_1" xmlns="http://www.w3.org/2000/svg" xmlns:xlink="http://www.w3.org/1999/xlink" x="0px" y="0px"
	 viewBox="0 0 100 100" style="enable-background:new 0 0 100 100;" xml:space="preserve">
<style type="text/css">
	.st0{fill:#666666;}
</style>
<path id="XMLID_6_" class="st0" d="M60.9,10.1H9.3c-5.2,0-9.3,4.1-9.3,9.2v71.5c0,5.1,4.2,9.2,9.3,9.2h72.3c5.1,0,9.3-4.1,9.3-9.2
	V49.3c0-2.5-1.3-4.6-3.4-4.5c-1.9,0.1-3.6,1.9-3.6,4.5v41.5c0,1.3-1,2.3-2.3,2.3H9.3c-1.3,0-2.3-1-2.3-2.3V19.3C7,18,8,17,9.3,17
	h51.6c2.6,0,4.4-1.3,4.4-3.4S63.5,10.1,60.9,10.1z M56.1,43.4c-1.4-1.4-1.4-3.5,0-4.9L94,1c1.4-1.3,3.6-1.3,4.9,0
	c1.4,1.4,1.4,3.5,0,4.9L61,43.4C59.7,44.8,57.5,44.8,56.1,43.4z M14,43.5c0-1.9,1.5-3.5,3.5-3.5h28c1.9,0,3.5,1.5,3.5,3.5
	c0,1.9-1.5,3.5-3.5,3.5h-28C15.5,47,14,45.4,14,43.5z M14,68.9c0-1.9,1.6-3.5,3.5-3.5h56c1.9,0,3.5,1.5,3.5,3.5
	c0,1.9-1.6,3.5-3.5,3.5h-56C15.5,72.3,14,70.8,14,68.9z"/>
</svg>
