<?xml version="1.0" encoding="utf-8"?>
<!-- Generator: Adobe Illustrator 19.0.0, SVG Export Plug-In . SVG Version: 6.00 Build 0)  -->
<svg version="1.1" id="图层_1" xmlns="http://www.w3.org/2000/svg" xmlns:xlink="http://www.w3.org/1999/xlink" x="0px" y="0px"
	 viewBox="0 0 100 100" style="enable-background:new 0 0 100 100;" xml:space="preserve">
<style type="text/css">
	.st0{fill:#666666;stroke:#666666;stroke-width:0.5;stroke-miterlimit:10;}
</style>
<path id="XMLID_13_" class="st0" d="M16,79.9c0.1,0,0.2,0,0.3,0s0.1,0,0.2,0h26.6c2.1,0,3.9,1.4,4.7,3.6v3c0,1,1.1,2,2.4,2l0,0l0,0
	l0,0l0,0l0,0h0.1c1.3-0.1,2.3-0.9,2.3-2v-3c0.8-2.1,2.6-3.6,4.7-3.6H84c1.3,0,2.5-0.8,2.5-1.9V6.9c0-0.8-0.8-1.6-1.7-1.8
	c-0.3-0.1-0.5-0.2-0.8-0.2H57.4c-2.9,0-5.4,1.7-7.1,4.3c-1.7-2.6-4.2-4.4-7.1-4.4H16.4c-0.2,0-0.5,0.1-0.7,0.2
	c-1.2,0.1-2.3,0.9-2.3,1.9V78C13.5,79,14.6,79.9,16,79.9z M57.4,9.9h24v65.2h-24c-1.7,0-3.3,0.6-4.7,1.5V13.7
	C53.5,11.5,55.3,9.9,57.4,9.9z M47.6,13.7v63c-1.4-0.9-2.9-1.5-4.6-1.5H18.6V9.9H43C45.1,9.9,46.8,11.4,47.6,13.7z"/>
<path id="XMLID_15_" class="st0" d="M99.9,10.9c0-1.2-1.1-2.2-2.5-2.2c-1.3,0-2.5,1-2.5,2.2v82.5H5V10.9c0-1.2-1-2.2-2.4-2.2
	c-1.3,0-2.5,1-2.5,2.2v83.7c0,0.2,0,0.4,0.1,0.6c0,0.2-0.1,0.3-0.1,0.5c0,1.2,1.1,2.2,2.5,2.2h1.1h92.6h1.2c1.4,0,2.4-1,2.4-2.2
	c0-0.2,0-0.3-0.1-0.5c0-0.2,0.1-0.4,0.1-0.6C99.9,94.6,99.9,10.9,99.9,10.9z"/>
</svg>
