<?xml version="1.0" encoding="utf-8"?>
<!-- Generator: Adobe Illustrator 19.0.0, SVG Export Plug-In . SVG Version: 6.00 Build 0)  -->
<svg version="1.1" id="图层_1" xmlns="http://www.w3.org/2000/svg" xmlns:xlink="http://www.w3.org/1999/xlink" x="0px" y="0px"
	 viewBox="100 0 100 100" style="enable-background:new 100 0 100 100;" xml:space="preserve">
<style type="text/css">
	.st0{fill:#666666;}
</style>
<path class="st0" d="M198.5,44.9l-5.7-5.1c0,0-0.1,0-0.1-0.1c1.8-1.8,3.6-3.8,5.4-5.9c1-1.1,0.8-2.8-0.3-3.8c-1.1-1-2.8-0.8-3.8,0.3
	c-15.2,17.7-30.9,26.3-46.6,25.4c-24.7-1.3-41.7-25.3-41.8-25.5c-0.9-1.2-2.5-1.5-3.8-0.7c-1.2,0.9-1.5,2.5-0.7,3.8
	c0.2,0.3,1.9,2.6,4.7,5.8l-4.1,4.1c-1.1,1.1-1.1,2.8,0,3.8c0.5,0.5,1.2,0.8,1.9,0.8s1.4-0.3,1.9-0.8l4.1-4.1c2.1,2,4.4,4.1,7.2,6.2
	l-4.5,5.4c-1,1.1-0.8,2.8,0.3,3.8c0.5,0.4,1.1,0.6,1.7,0.6c0.8,0,1.5-0.3,2.1-1l4.8-5.7c2.6,1.7,5.5,3.3,8.5,4.6l-2.7,6
	c-0.6,1.4,0,3,1.4,3.6c0.4,0.2,0.7,0.2,1.1,0.2c1,0,2-0.6,2.5-1.6l2.8-6.3c3.8,1.2,7.9,2.1,12.3,2.4h0.2l0.1,7.1
	c0,1.5,1.2,2.7,2.7,2.7h0c1.5,0,2.7-1.2,2.7-2.7l-0.1-7.2c3.6-0.3,7.1-0.9,10.6-2c0,0.2,0,0.4,0.1,0.6l2.7,7.2
	c0.4,1.1,1.4,1.7,2.5,1.7c0.3,0,0.7-0.1,1-0.2c1.4-0.5,2.1-2.1,1.6-3.5l-2.7-7.2c-0.1-0.2-0.2-0.3-0.3-0.4c2.8-1.2,5.7-2.8,8.5-4.5
	c0.1,0.3,0.3,0.6,0.5,0.8l5.3,5.5c0.5,0.6,1.2,0.8,1.9,0.8c0.7,0,1.4-0.3,1.9-0.8c1.1-1,1.1-2.7,0.1-3.8l-5.3-5.5
	c2.6-1.9,5.2-4.1,7.8-6.5c0.1,0.1,0.2,0.3,0.3,0.4l5.7,5.1c0.5,0.5,1.2,0.7,1.8,0.7c0.7,0,1.5-0.3,2-0.9
	C199.7,47.6,199.6,45.9,198.5,44.9L198.5,44.9z"/>
</svg>
