<?xml version="1.0" encoding="utf-8"?>
<!-- Generator: Adobe Illustrator 19.0.0, SVG Export Plug-In . SVG Version: 6.00 Build 0)  -->
<svg version="1.1" id="图层_1" xmlns="http://www.w3.org/2000/svg" xmlns:xlink="http://www.w3.org/1999/xlink" x="0px" y="0px"
	 viewBox="0 0 100 100" style="enable-background:new 0 0 100 100;" xml:space="preserve">
<style type="text/css">
	.st0{fill:#666666;}
</style>
<path id="XMLID_6_" class="st0" d="M50,100C22.5,100,0,77.5,0,50S22.5,0,50,0s50,22.5,50,50S77.5,100,50,100z M50,7.1
	C26.4,7.1,7.1,26.4,7.1,50S26.4,92.9,50,92.9S92.9,73.6,92.9,50S73.6,7.1,50,7.1z"/>
<path id="XMLID_1_" class="st0" d="M67.9,60.7H53.6V50h14.3c2,0,3.6-1.6,3.6-3.6c0-2-1.6-3.6-3.6-3.6h-9.3l11.6-11.6
	c1.4-1.4,1.4-3.6,0-5c-1.4-1.4-3.6-1.4-5,0L50,41.4L34.8,26.3c-1.4-1.4-3.6-1.4-5,0c-1.4,1.4-1.4,3.6,0,5l11.6,11.6h-9.3
	c-2,0-3.6,1.6-3.6,3.6c0,2,1.6,3.6,3.6,3.6h14.3v10.7H32.1c-2,0-3.6,1.6-3.6,3.6s1.6,3.6,3.6,3.6h14.3v10.7c0,2,1.6,3.6,3.6,3.6
	c2,0,3.6-1.6,3.6-3.6V67.9h14.3c2,0,3.6-1.6,3.6-3.6S69.8,60.7,67.9,60.7z"/>
</svg>
