<?xml version="1.0" encoding="utf-8"?>
<!-- Generator: Adobe Illustrator 19.0.0, SVG Export Plug-In . SVG Version: 6.00 Build 0)  -->
<svg version="1.1" id="图层_1" xmlns="http://www.w3.org/2000/svg" xmlns:xlink="http://www.w3.org/1999/xlink" x="0px" y="0px"
	 viewBox="50 50 100 100" style="enable-background:new 50 50 100 100;" xml:space="preserve">
<style type="text/css">
	.st0{fill:#666666;}
</style>
<path class="st0" d="M144.2,51.4c1.3-0.1,3.8-0.4,5-0.5c-0.3,25.6,0.9,51.4-0.5,76.9c-3.8,19.6-35.9,18.8-39.1-0.3
	c-5.7-16.7,14.9-31.1,29.6-23c0-10.6,0.1-21.1-0.1-31.7c-15.9,2.1-32,4.1-47.6,7.5c-1,18.7,1.3,37.8-1.1,56.3
	c-5,17.7-33.6,18-38.8,0.1c-6.6-17.2,13.9-33,29.5-24.6c0.4-17.3-0.2-34.6,0.2-51.9C102.2,56.5,123.3,54.6,144.2,51.4L144.2,51.4z"
	/>
</svg>
