<?xml version="1.0" encoding="utf-8"?>
<!-- Generator: Adobe Illustrator 19.0.0, SVG Export Plug-In . SVG Version: 6.00 Build 0)  -->
<svg version="1.1" id="图层_1" xmlns="http://www.w3.org/2000/svg" xmlns:xlink="http://www.w3.org/1999/xlink" x="0px" y="0px"
	 viewBox="50 50 100 100" style="enable-background:new 50 50 100 100;" xml:space="preserve">
<style type="text/css">
	.st0{fill:#055C1A;}
</style>
<path class="st0" d="M50,50v100h100V50H50z M122.5,110.2v0.9c0,0.2,0,0.5,0,0.7v0.8c-0.7,5.4-5,9.6-10.4,10.3
	c-4.7,0-7.7-4.6-6.8-10.3c0.7-5.3,4.8-9.5,10.1-10.3h0.6V77.6l-29.3,4.9v33.2c0.2,6.3-4.3,11.8-10.6,12.7c-4.7,0-7.7-4.6-6.8-10.3
	c0.6-5.5,4.9-9.8,10.4-10.4h0.6V79.8c0-1.6,1.1-2.9,2.7-3.2l35.8-6c1.7-0.4,3.4,0.7,3.8,2.5c0,0.2,0.1,0.5,0.1,0.7v36.3L122.5,110.2
	z"/>
</svg>
