<?xml version="1.0" encoding="utf-8"?>
<!-- Generator: Adobe Illustrator 19.0.0, SVG Export Plug-In . SVG Version: 6.00 Build 0)  -->
<svg version="1.1" id="图层_1" xmlns="http://www.w3.org/2000/svg" xmlns:xlink="http://www.w3.org/1999/xlink" x="0px" y="0px"
	 viewBox="50 50 100 100" style="enable-background:new 50 50 100 100;" xml:space="preserve">
<style type="text/css">
	.st0{fill:#666666;}
</style>
<path class="st0" d="M100.5,128.7c0.5,0,1,0,1.5-0.1c4.9-0.6,9.1-3.9,10.7-8.5c0.1-0.3-0.1-0.7-0.4-0.9c-0.3-0.1-0.7,0-0.9,0.3
	c0,0-2,3.1-9.6,4.1c-1.1,0.1-2.2,0.2-3.3,0.2c-5.4,0-7.7-2-7.8-2c-0.3-0.2-0.7-0.2-1,0c-0.3,0.2-0.3,0.6-0.2,0.9
	C91.9,126.4,96.1,128.7,100.5,128.7L100.5,128.7z M141.6,82.8c-0.1,0-0.1,0-0.2,0C136.9,64,119.8,50,99.3,50
	c-21.1,0-38.6,14.8-42.5,34.3c-3.8,0.7-6.6,3.9-6.6,7.8v15.5c0,4.4,3.6,7.9,8.1,7.9c2.5,0,4.7-1.2,6.2-2.9
	c3.6,9.1,10.8,16.5,20,20.4c0,0,0.2-0.4,0.4-0.6c0.1-0.2,0.3-0.3,0.4-0.3c0.1,0,0.3,0,0.4,0.1c-2.1-1.5-9.8-9.4-11.5-20.4
	c-0.7-4.8,3-9.6,7.4-10.4c7-1.3,14-2.7,21-3.9c4.5-0.8,7.5-3.1,9.3-7.1c0.4-0.9,1.1-2.8,1.4-5.5c0.1-0.4,0.4-0.7,0.8-0.7
	c0.3,0,0.5,0.1,0.7,0.3l0.2-0.1c2.8,3.9,8.2,12.5,9,21.5c0.9,10.4,0.4,17.4-7.8,24.7c0,0,0,0,0,0c-0.1,0.1-0.2,0.3-0.2,0.4
	c0,0.2,0.1,0.4,0.3,0.5l0.2,0.1c0.1,0,0.1,0,0.2,0c0.1,0,0.1,0,0.2,0c0.1-0.1,0.2-0.1,0.3-0.2c8.3-4.4,14.6-11.8,17.6-20.7
	c1.2,1.7,3,2.9,5.2,3.4c-3.5,15.3-17.5,24.8-34.9,26.3c-1-2.5-3.6-4.3-6.6-4.3c-3.9,0-7.1,3-7.1,6.7c0,3.7,3.2,6.7,7.1,6.7
	c3.2,0,5.8-2,6.8-4.7c20.2-1.6,36.3-13.2,39.7-31.2c3-1.2,5.1-4,5.1-7.3V90.7C149.9,86.3,146.2,82.8,141.6,82.8 M134.1,87.3
	c-5.3-13.8-18.9-23.6-34.9-23.6c-16,0-29.5,9.8-34.8,23.5c-0.3-0.3-0.6-0.6-0.9-0.9c3-16.7,17.8-29.4,35.7-29.4
	c17.8,0,32.6,12.6,35.7,29.1C134.7,86.4,134.4,86.9,134.1,87.3z M84.4,133L84.4,133C84.4,133,84.4,133,84.4,133z"/>
</svg>
