<?xml version="1.0" encoding="utf-8"?>
<!-- Generator: Adobe Illustrator 19.0.0, SVG Export Plug-In . SVG Version: 6.00 Build 0)  -->
<svg version="1.1" id="图层_1" xmlns="http://www.w3.org/2000/svg" xmlns:xlink="http://www.w3.org/1999/xlink" x="0px" y="0px"
	 viewBox="50 50 100 100" style="enable-background:new 50 50 100 100;" xml:space="preserve">
<style type="text/css">
	.st0{fill:#666666;}
</style>
<path class="st0" d="M100,69.2c-30,0-50,30.2-50,30.2s20,30.2,50,30.2s50-30.2,50-30.2S130,69.2,100,69.2z M100,119.4
	c-11,0-19.9-9-19.9-20.1S89,79.3,100,79.3c11,0,19.9,9,19.9,20.1C119.9,110.4,111,119.4,100,119.4L100,119.4z M90,99.4
	c0,2.6,1.1,5.2,2.9,7.1c1.8,1.9,4.4,2.9,7,2.9s5.2-1.1,7-2.9c1.8-1.9,2.9-4.5,2.9-7.1c0-2.6-1.1-5.2-2.9-7.1c-1.8-1.9-4.4-2.9-7-2.9
	c-2.6,0-5.2,1.1-7,2.9C91.1,94.2,90,96.8,90,99.4z"/>
</svg>
